<svg height='100px' width='100px'  fill="#000000" xmlns="http://www.w3.org/2000/svg" xmlns:xlink="http://www.w3.org/1999/xlink" version="1.1" x="0px" y="0px" viewBox="0 0 100 100" enable-background="new 0 0 100 100" xml:space="preserve"><g><path d="M77.723,38.971c0-5.728-9.413-9.314-20.145-10.462c-1.62-11.598-5.135-20.607-10.431-20.607   c-4.691,0-8.638,7.163-10.053,18.249c-0.091,0.714-0.223,2.477-0.276,3.213c-8.2,1.653-14.537,4.909-14.537,9.607   c0,0.058,0.001,0.115,0.003,0.172l-0.072,0.085l7.661,44.021c0.167,5.749,10.5,8.85,20.228,8.85c9.729,0,20.065-3.102,20.228-8.854   l7.462-44.023l-0.07-0.078C77.722,39.086,77.723,39.028,77.723,38.971z M74.723,38.971c0,0.201-0.035,0.404-0.099,0.609   c-0.002,0.007-0.003,0.015-0.006,0.021c-0.396,1.232-1.928,2.514-4.319,3.644c-0.089,0.042-0.175,0.083-0.267,0.124   c-0.277,0.127-0.572,0.25-0.871,0.371c-0.106,0.043-0.216,0.085-0.325,0.127c-0.148-0.102-0.312-0.198-0.472-0.296   c-0.078-0.048-0.148-0.097-0.228-0.144c-0.258-0.149-0.532-0.295-0.818-0.437c-0.099-0.049-0.207-0.095-0.308-0.143   c-0.197-0.093-0.394-0.186-0.603-0.274c-0.127-0.055-0.264-0.105-0.396-0.158c-0.195-0.079-0.39-0.157-0.594-0.233   c-0.145-0.053-0.297-0.104-0.446-0.155c-0.204-0.07-0.407-0.142-0.618-0.209c-0.158-0.051-0.321-0.099-0.482-0.147   c-0.214-0.064-0.43-0.128-0.651-0.189c-0.169-0.047-0.342-0.092-0.516-0.137c-0.225-0.059-0.45-0.116-0.681-0.171   c-0.18-0.043-0.362-0.084-0.545-0.125c-0.235-0.053-0.472-0.104-0.712-0.152c-0.189-0.039-0.38-0.076-0.572-0.112   c-0.245-0.047-0.493-0.091-0.743-0.135c-0.196-0.033-0.392-0.066-0.59-0.098c-0.103-0.017-0.202-0.035-0.306-0.051   c-0.087-3.038-0.29-6.045-0.601-8.936C67.932,32.742,74.723,35.996,74.723,38.971z M54.723,46.675   c-0.368,0.025-0.737,0.048-1.111,0.066c-0.44,0.022-0.882,0.041-1.327,0.056c-0.179,0.005-0.358,0.01-0.538,0.015   c-0.579,0.014-1.159,0.023-1.745,0.023s-1.166-0.01-1.744-0.023c-0.18-0.005-0.36-0.01-0.539-0.015   c-0.444-0.015-0.885-0.033-1.324-0.055c-0.376-0.02-0.748-0.042-1.117-0.067c-0.188-0.012-0.374-0.024-0.56-0.039   c-3.538-0.269-6.748-0.796-9.495-1.493c0.04-0.016,0.079-0.032,0.12-0.048c0.318-0.124,0.653-0.245,1.007-0.362   c0.052-0.018,0.1-0.036,0.152-0.053c0.406-0.132,0.84-0.258,1.291-0.379c0.114-0.031,0.232-0.061,0.349-0.091   c0.384-0.099,0.784-0.193,1.198-0.284c0.104-0.022,0.203-0.046,0.308-0.068c0.506-0.105,1.034-0.204,1.582-0.296   c0.12-0.02,0.245-0.038,0.367-0.057c0.459-0.073,0.932-0.14,1.418-0.201c0.148-0.019,0.294-0.038,0.445-0.056   c0.6-0.07,1.217-0.133,1.856-0.184c0.097-0.008,0.2-0.013,0.298-0.02c0.557-0.042,1.13-0.074,1.715-0.101   c0.182-0.008,0.365-0.016,0.55-0.021c0.692-0.024,1.396-0.041,2.125-0.041c0.728,0,1.432,0.017,2.125,0.041   c0.185,0.006,0.368,0.014,0.55,0.021c0.585,0.025,1.157,0.059,1.714,0.101c0.099,0.007,0.202,0.012,0.299,0.02   c0.313,0.025,0.606,0.061,0.91,0.09c0.002,0.297,0.007,0.59,0.007,0.89c0,0.864-0.021,1.716-0.039,2.568   c-0.094,0.008-0.186,0.017-0.28,0.023C55.101,46.65,54.912,46.663,54.723,46.675z M60.356,43.857   c0.106,0.022,0.207,0.046,0.311,0.069c0.413,0.09,0.811,0.185,1.194,0.283c0.117,0.03,0.236,0.06,0.351,0.091   c0.45,0.121,0.883,0.247,1.289,0.379c0.053,0.017,0.1,0.035,0.152,0.053c0.355,0.117,0.69,0.239,1.009,0.363   c0.04,0.016,0.079,0.031,0.118,0.047c-1.87,0.475-3.952,0.87-6.208,1.16c0.014-0.752,0.035-1.499,0.035-2.259   c0-0.17-0.003-0.339-0.003-0.509c0.057,0.009,0.116,0.018,0.172,0.026C59.323,43.653,59.851,43.752,60.356,43.857z M40.069,26.53   c1.233-9.653,4.634-15.629,7.078-15.629c2.505,0,5.709,6.344,7.363,17.351c-1.499-0.095-3.008-0.145-4.507-0.145   c-3.407,0-6.868,0.246-10.137,0.727C39.93,27.988,40.012,26.974,40.069,26.53z M50.002,31.107c1.691,0,3.331,0.061,4.908,0.172   c0.313,2.721,0.536,5.678,0.636,8.857c-0.117-0.011-0.235-0.02-0.352-0.029c-0.202-0.018-0.402-0.037-0.606-0.053   c-0.303-0.022-0.609-0.041-0.917-0.06c-0.195-0.012-0.388-0.025-0.585-0.035c-0.336-0.017-0.677-0.028-1.018-0.04   c-0.171-0.005-0.34-0.014-0.512-0.018c-0.514-0.014-1.032-0.021-1.553-0.021s-1.039,0.007-1.553,0.021   c-0.172,0.004-0.342,0.013-0.513,0.018c-0.34,0.012-0.681,0.023-1.017,0.04c-0.198,0.01-0.392,0.023-0.588,0.035   c-0.306,0.019-0.612,0.037-0.914,0.06c-0.205,0.016-0.406,0.035-0.609,0.053c-0.286,0.024-0.572,0.05-0.854,0.078   c-0.208,0.021-0.414,0.046-0.62,0.069c-0.27,0.03-0.54,0.062-0.806,0.097c-0.206,0.026-0.408,0.056-0.61,0.084   c-0.26,0.037-0.519,0.075-0.774,0.116c-0.2,0.031-0.396,0.064-0.593,0.099c-0.25,0.043-0.496,0.087-0.74,0.133   c-0.193,0.037-0.385,0.075-0.576,0.113c-0.24,0.049-0.476,0.1-0.709,0.152c-0.184,0.041-0.367,0.082-0.547,0.125   c-0.231,0.056-0.457,0.112-0.681,0.171c-0.173,0.045-0.346,0.09-0.516,0.137c-0.222,0.062-0.437,0.126-0.652,0.19   c-0.161,0.048-0.324,0.096-0.481,0.146c-0.212,0.067-0.416,0.139-0.62,0.21c-0.148,0.051-0.3,0.102-0.444,0.154   c-0.206,0.076-0.402,0.156-0.6,0.235c-0.129,0.052-0.263,0.103-0.389,0.156c-0.215,0.091-0.418,0.187-0.621,0.282   c-0.095,0.046-0.197,0.088-0.29,0.134c-0.287,0.143-0.562,0.289-0.821,0.438c-0.067,0.039-0.125,0.08-0.189,0.119   c-0.174,0.105-0.349,0.21-0.509,0.319c-0.111-0.043-0.224-0.086-0.332-0.129c-0.294-0.121-0.585-0.242-0.859-0.366   c-0.095-0.043-0.186-0.087-0.278-0.13c-2.387-1.129-3.917-2.409-4.313-3.641c-0.002-0.007-0.003-0.015-0.005-0.021   c-0.064-0.205-0.099-0.408-0.099-0.609C25.281,35.259,35.853,31.107,50.002,31.107z M67.351,82.856l-0.021,0.251   c0,2.502-6.555,5.991-17.229,5.991s-17.229-3.489-17.229-5.991l-6.651-38.349c0.029,0.019,0.063,0.036,0.093,0.055   c0.281,0.179,0.574,0.354,0.884,0.525c0.08,0.044,0.166,0.086,0.247,0.129c0.246,0.132,0.5,0.262,0.763,0.39   c0.119,0.057,0.24,0.113,0.362,0.17c0.257,0.119,0.523,0.235,0.795,0.351c0.099,0.042,0.195,0.084,0.295,0.125   c0.397,0.162,0.804,0.321,1.232,0.476l0,0c0.189,0.068,0.397,0.127,0.591,0.193c0.295,0.099,0.589,0.198,0.894,0.292   c0.39,0.121,0.789,0.237,1.194,0.35c0.045,0.012,0.091,0.024,0.136,0.036c3.542,0.971,7.646,1.603,12.022,1.854   c0.382,0.022,0.764,0.044,1.146,0.061c0.293,0.013,0.587,0.023,0.882,0.031c0.75,0.023,1.499,0.04,2.246,0.04   s1.497-0.017,2.246-0.04c0.296-0.008,0.591-0.019,0.885-0.031c0.382-0.017,0.763-0.038,1.144-0.061   c0.396-0.023,0.795-0.04,1.186-0.069c-0.024,0.513-0.041,1.031-0.072,1.538c-2.959,0.459-5.234,3.017-5.234,6.103   c0,3.409,2.773,6.183,6.183,6.183c3.409,0,6.182-2.773,6.182-6.183c0-2.692-1.733-4.982-4.14-5.829   c0.043-0.694,0.068-1.403,0.099-2.107c2.813-0.335,5.454-0.839,7.842-1.494c0.045-0.013,0.09-0.024,0.135-0.036   c0.401-0.112,0.796-0.228,1.182-0.348c0.299-0.092,0.588-0.189,0.878-0.286c0.196-0.067,0.405-0.126,0.597-0.195l0,0   c0.437-0.157,0.852-0.32,1.256-0.486c0.097-0.039,0.191-0.08,0.286-0.12c0.278-0.118,0.549-0.237,0.811-0.359   c0.116-0.054,0.231-0.107,0.344-0.161c0.284-0.138,0.557-0.278,0.821-0.421c0.062-0.033,0.128-0.065,0.189-0.099   c0.312-0.174,0.606-0.351,0.889-0.53c0.032-0.021,0.069-0.04,0.101-0.061L67.351,82.856z M58.13,54.647   c0.838,0.573,1.391,1.536,1.391,2.627c0,1.755-1.427,3.183-3.182,3.183c-1.755,0-3.183-1.428-3.183-3.183   c0-1.333,0.825-2.473,1.99-2.946c-0.124,1.367-0.266,2.717-0.441,4.033l2.974,0.395C57.858,57.414,58.003,56.039,58.13,54.647z"></path></g></svg>